<svg width="24" height="24" viewBox="0 0 24 24" fill="none" xmlns="http://www.w3.org/2000/svg">
<path d="M23.997 6.12398C23.997 5.38598 23.932 4.65398 23.757 3.93398C23.44 2.62398 22.695 1.62398 21.577 0.890977C21.003 0.516977 20.373 0.284977 19.7 0.163977C19.183 0.0709766 18.662 0.0289766 18.136 0.0139766C18.096 0.0109766 18.053 0.00397656 18.012 0.000976562H5.98795C5.83595 0.0109766 5.68495 0.0179766 5.53295 0.0269766C4.78595 0.0699766 4.04295 0.149977 3.33995 0.427977C2.00395 0.957977 1.03995 1.87998 0.474953 3.20798C0.282953 3.65598 0.182953 4.13298 0.111953 4.61598C0.0559531 5.00798 0.0239531 5.40098 0.0119531 5.79598C0.0119531 5.82798 0.00495313 5.85798 0.00195312 5.88898V18.112C0.0119531 18.252 0.0189531 18.395 0.0289531 18.536C0.0789531 19.351 0.182953 20.16 0.525953 20.909C1.17595 22.329 2.26395 23.262 3.75995 23.711C4.17995 23.838 4.61595 23.898 5.05295 23.939C5.60795 23.992 6.16295 23.999 6.71995 23.999H17.75C18.275 23.999 18.798 23.965 19.32 23.899C20.143 23.793 20.917 23.549 21.616 23.089C22.456 22.536 23.088 21.802 23.496 20.881C23.682 20.461 23.789 20.011 23.866 19.557C23.979 18.882 24.004 18.199 24.003 17.517C24.001 13.717 24.003 9.92198 24 6.12398H23.997ZM17.574 10.114V15.826C17.574 16.243 17.516 16.653 17.33 17.032C17.04 17.622 16.57 17.994 15.942 18.172C15.592 18.272 15.236 18.329 14.872 18.345C13.922 18.39 13.099 17.745 12.929 16.809C12.787 16.036 13.156 15.185 13.967 14.787C14.29 14.627 14.637 14.537 14.985 14.463C15.363 14.381 15.743 14.31 16.119 14.223C16.393 14.16 16.576 13.993 16.629 13.707C16.643 13.644 16.649 13.577 16.649 13.514C16.649 11.699 16.649 9.88398 16.647 8.07098C16.647 8.00898 16.637 7.94598 16.621 7.88598C16.581 7.73598 16.471 7.64298 16.317 7.65198C16.157 7.66198 15.999 7.68698 15.842 7.71798C15.082 7.86798 14.322 8.02098 13.562 8.17398L11.236 8.64398L9.86195 8.92198C9.84595 8.92498 9.82995 8.93198 9.81395 8.93498C9.53695 9.01198 9.43695 9.13798 9.42395 9.42498C9.42195 9.46698 9.42395 9.51098 9.42395 9.55498C9.42195 12.157 9.42395 14.759 9.42095 17.36C9.42095 17.78 9.37395 18.196 9.20595 18.587C8.92795 19.227 8.43595 19.627 7.77195 19.82C7.42195 19.92 7.06195 19.98 6.69695 19.992C5.73695 20.028 4.94195 19.392 4.77695 18.448C4.63695 17.636 5.00695 16.763 5.93095 16.373C6.28795 16.223 6.66095 16.141 7.03895 16.063C7.32595 16.003 7.61395 15.947 7.89895 15.886C8.28195 15.803 8.48195 15.563 8.49895 15.172V15.022C8.49895 12.062 8.49895 9.09998 8.50095 6.13998C8.50095 6.01698 8.51395 5.88998 8.54295 5.76998C8.61295 5.48498 8.81595 5.32198 9.08895 5.25198C9.34395 5.18598 9.60395 5.13998 9.86295 5.08698C10.596 4.93698 11.329 4.79098 12.063 4.64298L14.333 4.18298C15.003 4.04898 15.673 3.91298 16.343 3.77998C16.563 3.73698 16.786 3.69198 17.007 3.67398C17.317 3.64898 17.53 3.84398 17.561 4.15598C17.569 4.22898 17.573 4.30398 17.573 4.37898C17.575 6.28898 17.575 8.20098 17.573 10.111L17.574 10.114Z" fill="black"/>
</svg>
