<svg width="24" height="30" viewBox="0 0 24 30" fill="none" xmlns="http://www.w3.org/2000/svg">
<path d="M2.79575 4.55459L2.7915 7.56217V22.4428C2.7915 23.6639 3.27658 24.835 4.14003 25.6985C5.00348 26.5619 6.17457 27.047 7.39567 27.047H19.6017C19.3817 27.6685 18.9745 28.2066 18.4362 28.5871C17.8978 28.9677 17.2548 29.172 16.5955 29.172H7.39567C5.61098 29.172 3.89939 28.463 2.63743 27.2011C1.37547 25.9391 0.666504 24.2275 0.666504 22.4428V7.56217C0.666504 6.17384 1.55475 4.99092 2.79575 4.55459ZM20.1457 0.833008C20.5643 0.833008 20.9787 0.915455 21.3655 1.07564C21.7522 1.23583 22.1036 1.47062 22.3996 1.7666C22.6956 2.06259 22.9303 2.41398 23.0905 2.8007C23.2507 3.18743 23.3332 3.60192 23.3332 4.02051V22.4372C23.3332 22.8558 23.2507 23.2703 23.0905 23.657C22.9303 24.0437 22.6956 24.3951 22.3996 24.6911C22.1036 24.9871 21.7522 25.2219 21.3655 25.382C20.9787 25.5422 20.5643 25.6247 20.1457 25.6247H7.39567C6.55029 25.6247 5.73954 25.2888 5.14177 24.6911C4.544 24.0933 4.20817 23.2826 4.20817 22.4372V4.02051C4.20817 3.17513 4.544 2.36438 5.14177 1.7666C5.73954 1.16883 6.55029 0.833008 7.39567 0.833008H20.1457ZM20.1457 2.95801H7.39567C7.11388 2.95801 6.84363 3.06995 6.64437 3.26921C6.44511 3.46846 6.33317 3.73872 6.33317 4.02051V22.4372C6.33317 23.0237 6.80917 23.4997 7.39567 23.4997H20.1457C20.4275 23.4997 20.6977 23.3877 20.897 23.1885C21.0962 22.9892 21.2082 22.719 21.2082 22.4372V4.02051C21.2082 3.73872 21.0962 3.46846 20.897 3.26921C20.6977 3.06995 20.4275 2.95801 20.1457 2.95801Z" fill="white"/>
</svg>
