<svg width="156" height="50" viewBox="0 0 156 50" fill="none" xmlns="http://www.w3.org/2000/svg">
<path d="M33.9601 20.1989L31.8476 30.1614C31.6881 30.8644 31.2726 31.0394 30.6821 30.7084L27.4631 28.3364L25.9101 29.8304C25.7381 30.0024 25.5946 30.1459 25.2631 30.1459L25.4946 26.8679L31.4601 21.4774C31.7196 21.2464 31.4036 21.1179 31.0571 21.3494L23.6821 25.9934L20.5071 24.9994C19.8166 24.7839 19.8041 24.3089 20.6511 23.9774L33.0696 19.1929C33.6446 18.9774 34.1476 19.3209 33.9601 20.1994V20.1989Z" fill="white"/>
<path d="M52.8972 19.6875V21.9902H54.6726V23.2471H52.8972V29.1445C52.8972 29.5254 52.9763 29.8125 53.1345 30.0059C53.2927 30.1934 53.5622 30.2871 53.9431 30.2871C54.1306 30.2871 54.3884 30.252 54.7165 30.1816V31.5C54.2888 31.6172 53.8728 31.6758 53.4685 31.6758C52.7419 31.6758 52.1941 31.4561 51.8249 31.0166C51.4558 30.5771 51.2712 29.9531 51.2712 29.1445V23.2471H49.5398V21.9902H51.2712V19.6875H52.8972ZM58.3658 23.1416C59.0865 22.2568 60.024 21.8145 61.1783 21.8145C63.188 21.8145 64.2017 22.9482 64.2193 25.2158V31.5H62.5933V25.207C62.5875 24.5215 62.4293 24.0146 62.1187 23.6865C61.814 23.3584 61.3365 23.1943 60.6861 23.1943C60.1587 23.1943 59.6959 23.335 59.2974 23.6162C58.899 23.8975 58.5884 24.2666 58.3658 24.7236V31.5H56.7398V18H58.3658V23.1416ZM70.7602 31.6758C69.4711 31.6758 68.4223 31.2539 67.6137 30.4102C66.8051 29.5605 66.4008 28.4268 66.4008 27.0088V26.71C66.4008 25.7666 66.5795 24.9258 66.9369 24.1875C67.3002 23.4434 67.8041 22.8633 68.4486 22.4473C69.099 22.0254 69.8021 21.8145 70.558 21.8145C71.7943 21.8145 72.7553 22.2217 73.4408 23.0361C74.1264 23.8506 74.4691 25.0166 74.4691 26.5342V27.2109H68.0268C68.0502 28.1484 68.3227 28.9072 68.8441 29.4873C69.3715 30.0615 70.0395 30.3486 70.848 30.3486C71.4223 30.3486 71.9086 30.2314 72.307 29.9971C72.7055 29.7627 73.0541 29.4521 73.3529 29.0654L74.3461 29.8389C73.5492 31.0635 72.3539 31.6758 70.7602 31.6758ZM70.558 23.1504C69.9018 23.1504 69.351 23.3906 68.9057 23.8711C68.4604 24.3457 68.185 25.0137 68.0795 25.875H72.8432V25.752C72.7963 24.9258 72.5736 24.2871 72.1752 23.8359C71.7768 23.3789 71.2377 23.1504 70.558 23.1504ZM84.552 26.8506C84.552 28.2979 84.2209 29.4639 83.5588 30.3486C82.8967 31.2334 82.0002 31.6758 80.8694 31.6758C79.7151 31.6758 78.8069 31.3096 78.1448 30.5771V35.1562H76.5188V21.9902H78.0041L78.0832 23.0449C78.7453 22.2246 79.6653 21.8145 80.843 21.8145C81.9856 21.8145 82.8879 22.2451 83.55 23.1064C84.218 23.9678 84.552 25.166 84.552 26.7012V26.8506ZM82.926 26.666C82.926 25.5938 82.6975 24.7471 82.2405 24.126C81.7834 23.5049 81.1565 23.1943 80.3596 23.1943C79.3752 23.1943 78.637 23.6309 78.1448 24.5039V29.0479C78.6311 29.915 79.3752 30.3486 80.3772 30.3486C81.1565 30.3486 81.7746 30.041 82.2317 29.4258C82.6946 28.8047 82.926 27.8848 82.926 26.666ZM88.5528 31.5H86.9268V21.9902H88.5528V31.5ZM86.795 19.4678C86.795 19.2041 86.8741 18.9814 87.0323 18.7998C87.1964 18.6182 87.4366 18.5273 87.753 18.5273C88.0694 18.5273 88.3096 18.6182 88.4737 18.7998C88.6378 18.9814 88.7198 19.2041 88.7198 19.4678C88.7198 19.7314 88.6378 19.9512 88.4737 20.127C88.3096 20.3027 88.0694 20.3906 87.753 20.3906C87.4366 20.3906 87.1964 20.3027 87.0323 20.127C86.8741 19.9512 86.795 19.7314 86.795 19.4678ZM95.1376 30.3486C95.7177 30.3486 96.2245 30.1729 96.6581 29.8213C97.0917 29.4697 97.332 29.0303 97.3788 28.5029H98.9169C98.8876 29.0479 98.7001 29.5664 98.3544 30.0586C98.0087 30.5508 97.5458 30.9434 96.9657 31.2363C96.3915 31.5293 95.7821 31.6758 95.1376 31.6758C93.8427 31.6758 92.8114 31.2451 92.0439 30.3838C91.2821 29.5166 90.9013 28.333 90.9013 26.833V26.5605C90.9013 25.6348 91.0712 24.8115 91.4111 24.0908C91.7509 23.3701 92.2372 22.8105 92.87 22.4121C93.5087 22.0137 94.2616 21.8145 95.1288 21.8145C96.1952 21.8145 97.08 22.1338 97.7831 22.7725C98.4921 23.4111 98.87 24.2402 98.9169 25.2598H97.3788C97.332 24.6445 97.0976 24.1406 96.6757 23.748C96.2597 23.3496 95.7441 23.1504 95.1288 23.1504C94.3027 23.1504 93.6611 23.4492 93.204 24.0469C92.7528 24.6387 92.5273 25.4971 92.5273 26.6221V26.9297C92.5273 28.0254 92.7528 28.8691 93.204 29.4609C93.6552 30.0527 94.2997 30.3486 95.1376 30.3486ZM103.559 27.0967L102.54 28.1602V31.5H100.914V18H102.54V26.165L103.41 25.1191L106.372 21.9902H108.349L104.649 25.9629L108.78 31.5H106.873L103.559 27.0967ZM118.239 26.8506C118.239 28.3037 117.905 29.4727 117.237 30.3574C116.569 31.2363 115.672 31.6758 114.547 31.6758C113.346 31.6758 112.418 31.251 111.761 30.4014L111.682 31.5H110.188V18H111.814V23.0361C112.47 22.2217 113.376 21.8145 114.53 21.8145C115.684 21.8145 116.589 22.251 117.246 23.124C117.908 23.9971 118.239 25.1924 118.239 26.71V26.8506ZM116.613 26.666C116.613 25.5586 116.399 24.7031 115.971 24.0996C115.544 23.4961 114.928 23.1943 114.126 23.1943C113.053 23.1943 112.283 23.6924 111.814 24.6885V28.8018C112.312 29.7979 113.088 30.2959 114.143 30.2959C114.922 30.2959 115.529 29.9941 115.962 29.3906C116.396 28.7871 116.613 27.8789 116.613 26.666ZM120.025 26.6572C120.025 25.7256 120.206 24.8877 120.57 24.1436C120.939 23.3994 121.449 22.8252 122.099 22.4209C122.755 22.0166 123.502 21.8145 124.34 21.8145C125.635 21.8145 126.681 22.2627 127.478 23.1592C128.281 24.0557 128.682 25.248 128.682 26.7363V26.8506C128.682 27.7764 128.503 28.6084 128.146 29.3467C127.794 30.0791 127.288 30.6504 126.625 31.0605C125.969 31.4707 125.213 31.6758 124.358 31.6758C123.069 31.6758 122.023 31.2275 121.22 30.3311C120.423 29.4346 120.025 28.248 120.025 26.7715V26.6572ZM121.66 26.8506C121.66 27.9053 121.903 28.752 122.389 29.3906C122.881 30.0293 123.538 30.3486 124.358 30.3486C125.184 30.3486 125.84 30.0264 126.327 29.3818C126.813 28.7314 127.056 27.8232 127.056 26.6572C127.056 25.6143 126.807 24.7705 126.309 24.126C125.817 23.4756 125.161 23.1504 124.34 23.1504C123.538 23.1504 122.89 23.4697 122.398 24.1084C121.906 24.7471 121.66 25.6611 121.66 26.8506ZM133.087 19.6875V21.9902H134.863V23.2471H133.087V29.1445C133.087 29.5254 133.166 29.8125 133.324 30.0059C133.483 30.1934 133.752 30.2871 134.133 30.2871C134.321 30.2871 134.578 30.252 134.907 30.1816V31.5C134.479 31.6172 134.063 31.6758 133.658 31.6758C132.932 31.6758 132.384 31.4561 132.015 31.0166C131.646 30.5771 131.461 29.9531 131.461 29.1445V23.2471H129.73V21.9902H131.461V19.6875H133.087Z" fill="white"/>
</svg>
