<svg width="24" height="16" viewBox="0 0 24 16" fill="none" xmlns="http://www.w3.org/2000/svg">
<path d="M18.81 0.160156V3.19016H24V0.160156H18.81ZM6.27 4.38016V7.40716H11.459V4.38016H6.269H6.27ZM18.81 4.38016V7.40716H24V4.38016H18.81ZM6.27 8.59416V11.6212H11.459V8.59416H6.269H6.27ZM12.541 8.59416V11.6212H17.731V8.59416H12.541ZM18.811 8.59416V11.6212H24V8.59416H18.81H18.811ZM0 12.8102V15.8392H5.19V12.8092H0V12.8102ZM6.27 12.8102V15.8392H11.459V12.8092H6.269L6.27 12.8102ZM12.541 12.8102V15.8392H17.731V12.8092H12.541V12.8102ZM18.811 12.8102V15.8392H24V12.8092H18.81L18.811 12.8102Z" fill="black"/>
</svg>
