<svg width="24" height="18" viewBox="0 0 24 18" fill="none" xmlns="http://www.w3.org/2000/svg">
<path d="M23.4951 3.20522C23.356 2.70699 23.0908 2.25305 22.725 1.88727C22.3593 1.5215 21.9053 1.25628 21.4071 1.11723C19.5371 0.616225 12.0111 0.616225 12.0111 0.616225C12.0111 0.616225 4.5041 0.606225 2.6151 1.11723C2.11686 1.25628 1.66292 1.5215 1.29715 1.88727C0.931378 2.25305 0.66615 2.70699 0.527099 3.20522C0.172619 5.11974 -0.00214065 7.06319 0.0050988 9.01023C-0.000772064 10.9499 0.173982 12.8859 0.527099 14.7932C0.66615 15.2915 0.931378 15.7454 1.29715 16.1112C1.66292 16.4769 2.11686 16.7422 2.6151 16.8812C4.4831 17.3832 12.0111 17.3832 12.0111 17.3832C12.0111 17.3832 19.5171 17.3832 21.4071 16.8812C21.9053 16.7422 22.3593 16.4769 22.725 16.1112C23.0908 15.7454 23.356 15.2915 23.4951 14.7932C23.8408 12.8852 24.0082 10.9492 23.9951 9.01023C24.0096 7.06388 23.8422 5.12043 23.4951 3.20522ZM9.6091 12.6012V5.40823L15.8731 9.01023L9.6091 12.6012Z" fill="white"/>
</svg>
